<svg xmlns="http://www.w3.org/2000/svg" viewBox="0 0 336 289.5"><style><![CDATA[.D{fill:#004f7a}.E{fill:#004268}.F{fill:#0078b8}]]></style><path d="M14 129.5h-1.4C13.2 117 31.3 114 32 114l214.6-37.5c17.3-2.7 18.4 9 18.4 9 0-.4-2.3-10-18-7.5L32.2 115.4c-.1 0-17.6 3-18.3 14z" fill="#08779a"/><path d="M212.6 10.4c1.4.1 2.7.6 3.6 1.6 1 1 1.6 2.2 1.6 3.5s-.7 2.6-1.7 3.5c-1 1-2.3 1.5-3.7 1.5-3.6 0-10-5-10-5s6.4-5 10-5z" fill="#4bbd98"/><path d="M251 38.6c-.7.8-1.6 1.5-2.6 2 .1.1.2.2.3.3a7.3 7.3 0 0 0 10.1-1.9 7.3 7.3 0 0 0-.4-10.3l-.7-.5c-1.3-1-3-.8-4.3.1s-1.7 2.6-1.2 4c.6 2 .2 4.4-1.2 6.2z" fill="#f9be4d"/><path d="M193.5 41c2.3-1 7.2.5 7.2.5s-1.7 5-4 6-7.2-.5-7.2-.5 1.7-4.8 4-6z" fill="#4bbd98"/><circle cx="239.7" cy="7.1" r="4.9" fill="#d2edf3"/><path d="M275.7 59.2c.8 1 1 2.4.4 3.6s-2 2-3.2 1.8-2.4-1-2.8-2.3 0-2.6 1-3.5c1.4-1.2 3.4-1 4.6.4z" fill="#ecf2fa"/><path d="M215.6 12.4c-.8-.8-2-1.2-3-1.3-3 0-8.5 4.2-8.5 4.2l.8.6a12.7 12.7 0 0 1 5.7-2.3 4.8 4.8 0 0 1 3 1.3 3.8 3.8 0 0 1 1.2 3.8l.6-.4a3.8 3.8 0 0 0 .2-5.9z" fill="#2fb595"/><path d="M236.5 4c-.4.3-.8.8-1 1.2 2-.7 4.2-.2 5.5 1.4s1.5 4 .5 5.7a5.3 5.3 0 0 0 1.4-.8c2-1.7 2.4-5 .6-7s-5-2.4-7-.6z" fill="#273457" opacity=".1"/><path d="M258.4 28.4c-.2-.2-.5-.4-.7-.5a3.9 3.9 0 0 0-2.4-.6 7.4 7.4 0 0 1 .2 10.1c-1.6 2-4 3.2-6.7 3a7.3 7.3 0 0 0 10.1-1.9 7.3 7.3 0 0 0-.4-10.3z" fill="#f1b01f"/><path d="M193.8 42a3.9 3.9 0 0 0-1.3 1.2 10.2 10.2 0 0 1 3.4.3c.3.1.5.2.6.5s.1.5 0 .8a11.7 11.7 0 0 1-1.2 2.1c.3 0 .6-.1 1-.2 1.7-.7 3-4.4 3-4.4-1.7-.6-3.6-.7-5.4-.3z" fill="#2fb595"/><path d="M198.3 75a16.6 16.6 0 0 1 4.1-23.1c9.2-6.4 21.8-4.2 28.3 5a25 25 0 0 1-6.1 34.8 1.6 1.6 0 0 1-2.1-.5 1.6 1.6 0 0 1 .3-2.2 21.8 21.8 0 0 0 5.3-30.3 17.1 17.1 0 0 0-23.8-4.2 13.4 13.4 0 0 0-3.3 18.6 10.4 10.4 0 0 0 14.5 2.5 8 8 0 0 0 2-11.1 6.1 6.1 0 0 0-8.5-1.5 1.6 1.6 0 0 1-2.2-.4c-2-3 8.5-7 13.3 0a11.2 11.2 0 0 1-2.7 15.6 13.6 13.6 0 0 1-18.9-3.2zM238 42.3a39 39 0 0 0-34.6-13.6 1.6 1.6 0 0 0-1.2 2.6 1.6 1.6 0 0 0 1.6.6 35.8 35.8 0 0 1 18.3 68.5 1.6 1.6 0 0 0 1.3 2.9 43 43 0 0 0 5.8-3.1 39 39 0 0 0 8.8-57.9zm21.4 3.3a65 65 0 0 1-20.9 56.2 1.6 1.6 0 0 0-.1 2.3c.3.3.7.5 1 .5s.8-.2 1-.5a68 68 0 0 0 21.9-58.8 1.6 1.6 0 1 0-3.2.4zM255 43c-3.7.7-7.7-1.4-7.3-3.3.3-1.4 1.5-1 3-2.7a5.3 5.3 0 0 0 .9-4.8 5.3 5.3 0 0 1 3.3-6.5C254 24.2 253 23 252 22a1.6 1.6 0 0 1-.2-2.3c2-2.4 5.5 2.8 6.3 6 8 2.5 6.2 15.6-3 17.3zm2.7-14c-.7-.5-1.7-.5-2.4.1s-1 1.5-.7 2.3c1 3 .1 6.3-2 8.5 6 1.3 10.5-8 5.3-11zm-55.5-13a1.6 1.6 0 0 1 0-2.5c.7-.5 7-5.3 11-5.3 3 .1 5.7 2 6.6 5a20.5 20.5 0 0 1 5.7 2.8 1.6 1.6 0 0 1 0 2.5c-1.4 1.2-2-.5-5.8-2-1 3-3.6 4.8-6.7 5-4 0-10.2-5-10.8-5.5zm3.7-1.2c6.3 4.4 8 4 10 2.3.7-.6 1-1.4 1-2.3s-.4-1.7-1-2.3c-1.8-1.6-3.6-2-10 2.2zM189.7 48a1.6 1.6 0 0 1-1-2.1c.3-1 2-5.6 4.8-7s7.5 0 8.4.4a1.6 1.6 0 0 1 1 2.1c-.8 2.4-2.6 5.8-4.8 7-2.8 1.3-7.5-.1-8.5-.4zm2.7-2.6c1.4.4 2.8.4 4.2.1a8.2 8.2 0 0 0 2.6-3.5c-3.4-.7-4.2-.1-4.2-.1a8.2 8.2 0 0 0-2.6 3.5zm53-43a6.5 6.5 0 1 1-10 8.4 6.5 6.5 0 0 1 10-8.4zm-2.4 2a4.1 4.1 0 1 0 8.2 0 4.1 4.1 0 0 0-4.1-4.1 4.1 4.1 0 0 0-4.1 4.1zm34.6 53c0 2-1.6 3.4-3.5 3.4s-3.4-1.5-3.4-3.5 1.5-3.4 3.4-3.5 3.5 1.5 3.5 3.4zm-4.8 2c0 .6.6 1.2 1.2 1.2s1.2-.5 1.2-1.2-.5-1.2-1.2-1.2-1.2.5-1.2 1.2z" class="F"/><path d="M138 107.7L13.2 129.5S26 154.6 25.6 165v80.7s.6 22.8 21 17.4L229 231c20.5-2 21-25 21-25v-80.8c-.1-10 12.6-39.7 12.6-39.7zM52.2 248H52c-.2 2-1.7 3.3-3.5 3.6-2 .3-3.5-.7-3.5-2.3 0-.2.1-.5.1-.7l.4-32c.2-2 1.7-3.4 3.6-3.6 2-.3 3.5.7 3.5 2.3zm.3-42h-.1a4 4 0 0 1-3.5 3.4c-2 .3-3.5-.7-3.5-2.3 0-.2 0-.5.1-.7l.4-32c.3-1.8 1.7-3.2 3.5-3.5 2-.3 3.5.7 3.5 2.3zM66 245.5h-.1c-.2 1.8-1.7 3.3-3.5 3.5-2 .3-3.5-.7-3.5-2.3 0-.2 0-.5.1-.7l.4-32c.3-1.8 1.7-3.3 3.5-3.5 2-.3 3.5.7 3.5 2.3zm.3-42c-.2 1.8-1.7 3.3-3.5 3.5-2 .3-3.5-.7-3.5-2.3 0-.2 0-.5.1-.7l.4-32c.3-1.8 1.7-3.2 3.5-3.5 2-.3 3.5.7 3.5 2.3zm14 39.7H80c-.3 1.8-1.7 3.2-3.5 3.4-2 .3-3.5-.7-3.5-2.3 0-.2 0-.5 0-.7l.4-32a4 4 0 0 1 3.5-3.5c2-.3 3.5.7 3.5 2.3zm.3-42.3h-.1c-.2 1.8-1.7 3.3-3.5 3.5-2 .3-3.5-.7-3.5-2.3a2.8 2.8 0 0 1 .1-.7l.4-32c.3-1.8 1.7-3.3 3.6-3.5 2-.3 3.5.7 3.5 2.3zM94 240.5h-.1a4 4 0 0 1-3.5 3.5c-2 .3-3.5-.7-3.5-2.3 0-.2 0-.5.1-.7l.4-32c.3-1.8 1.7-3.2 3.5-3.5 2-.3 3.5.7 3.5 2.3zm.3-42.2H94c-.2 1.8-1.7 3.3-3.5 3.5-2 .3-3.5-.7-3.5-2.3 0-.2 0-.4 0-.6l.4-32a4 4 0 0 1 3.5-3.5c2-.3 3.5.7 3.5 2.3zm12.5 40h-.1a4 4 0 0 1-3.5 3.5c-2 .3-3.5-.7-3.5-2.3 0-.2 0-.5.1-.7l.4-32c.3-1.8 1.7-3.3 3.5-3.5 2-.3 3.5.7 3.5 2.3zm.3-42h-.1c-.2 1.8-1.7 3.2-3.5 3.5-2 .3-3.5-.7-3.5-2.3a2.8 2.8 0 0 1 0-.7l.4-32a4 4 0 0 1 3.5-3.5c2-.3 3.5.7 3.5 2.3zm13.5 39.7h-.1a4 4 0 0 1-3.6 3.6c-2 .3-3.5-.7-3.5-2.3 0-.2 0-.5.1-.7l.4-32c.2-2 1.7-3.3 3.6-3.5 2-.3 3.5.7 3.5 2.3zm.3-42h-.1c-.2 1.8-1.7 3.3-3.5 3.5-2 .3-3.5-.7-3.5-2.3 0-.2 0-.5 0-.7l.4-32a4 4 0 0 1 3.5-3.5c2-.3 3.5.7 3.5 2.3zm14 39.6c-.2 1.8-1.7 3.3-3.5 3.5-2 .3-3.5-.7-3.5-2.3 0-.2 0-.5.1-.7l.4-32c.3-1.8 1.7-3.3 3.5-3.5 2-.3 3.5.7 3.5 2.3zm.3-42h-.1a4 4 0 0 1-3.5 3.5c-2 .3-3.5-.7-3.5-2.3 0-.2 0-.5.1-.7l.4-32c.3-1.8 1.7-3.3 3.5-3.5 2-.3 3.5.7 3.5 2.3zm13.4 39.8c-.2 1.8-1.7 3.3-3.5 3.5-2 .3-3.5-.7-3.5-2.3 0-.2 0-.5 0-.7l.4-32c.3-1.8 1.7-3.3 3.5-3.5 2-.3 3.5.7 3.5 2.3zm.3-42h-.1a4 4 0 0 1-3.6 3.5c-2 .3-3.5-.7-3.5-2.3 0-.2 0-.5.1-.7l.3-32c.3-1.8 1.7-3.2 3.5-3.5 2-.3 3.5.7 3.5 2.3zm11.8 40h-.1c-.2 1.8-1.7 3.3-3.5 3.5-2 .3-3.5-.7-3.5-2.3 0-.2 0-.5 0-.7l.4-32c.3-1.8 1.7-3.2 3.5-3.5 2-.3 3.5.7 3.5 2.3zm.3-42.2h-.1c-.2 1.8-1.7 3.3-3.5 3.5-2 .3-3.5-.7-3.5-2.3 0-.2.1-.5.1-.7l.4-32c.3-1.8 1.7-3.3 3.5-3.5 2-.3 3.5.7 3.5 2.3zm13.5 39.7h-.1c-.2 1.8-1.7 3.3-3.5 3.5-2 .3-3.5-.7-3.5-2.3 0-.2 0-.5.1-.7l.4-32c.3-1.8 1.7-3.3 3.5-3.5 2-.3 3.5.7 3.5 2.3zm.3-42h-.1c-.2 1.8-1.7 3.2-3.5 3.5-2 .4-3.5-.7-3.5-2.3 0-.2 0-.5 0-.7l.4-32a4 4 0 0 1 3.5-3.5c2-.3 3.5.7 3.5 2.3zm14 39.6c-.3 1.8-1.7 3.3-3.6 3.5-2 .3-3.5-.7-3.5-2.3 0-.2 0-.5.1-.7l.3-32c.3-1.8 1.7-3.2 3.5-3.5 2-.3 3.5.7 3.5 2.3zm.3-42h-.1c-.2 1.8-1.7 3.3-3.5 3.5-2 .3-3.5-.7-3.5-2.3 0-.2 0-.5.1-.7l.4-32c.3-1.8 1.7-3.2 3.5-3.5 2-.3 3.5.7 3.5 2.3zm13.4 39.7c-.2 1.8-1.7 3.3-3.5 3.5-2 .3-3.5-.7-3.5-2.3 0-.2.1-.5.1-.7l.4-32c.2-1.8 1.6-3.2 3.3-3.4 2-.3 3.5.7 3.5 2.3zm.3-42c-.3 1.8-1.7 3.3-3.5 3.5-2 .3-3.5-.7-3.5-2.3 0-.2 0-.5.1-.7l.4-32c.3-1.8 1.7-3.2 3.5-3.5 2-.3 3.5.7 3.5 2.3zm12.5 40h-.1c-.2 1.8-1.7 3.3-3.6 3.5-2 .3-3.5-.7-3.5-2.3 0-.2.1-.5.1-.7l.4-32c.3-1.8 1.7-3.2 3.6-3.5 2-.3 3.5.7 3.5 2.3zm.3-42.2h-.1a4 4 0 0 1-3.4 3.5c-2 .3-3.5-.7-3.5-2.3 0-.2 0-.5.1-.7l.4-32c.3-1.8 1.7-3.2 3.5-3.5 2-.3 3.5.7 3.5 2.3zm13.4 39.7c-.2 1.8-1.7 3.2-3.5 3.5-2 .3-3.5-.7-3.5-2.3 0-.2.1-.5.1-.7l.4-32c.3-1.8 1.7-3.2 3.5-3.4 2-.3 3.5.7 3.5 2.3zm.3-42h-.1c-.3 1.8-1.7 3.3-3.6 3.5-2 .3-3.5-.7-3.5-2.3 0-.2 0-.5.1-.7l.4-32c.3-1.8 1.7-3.2 3.5-3.5 2-.3 3.5.7 3.5 2.3z" fill="#0583c2"/><path d="M141 107l-128 22.4c-.1 1 0 2.3.2 3.4.8 5.3 4 6.5 6.8 12.2l2.3 6.8a172.1 172.1 0 0 1 3 10.6q0 41.6.1 83.2c0 .8 0 12 8.8 16.6a19.5 19.5 0 0 0 15.6.3l182.2-32c20.5-2 21-25 21-25v-80.7c-.2-10 12.4-39.7 12.4-39.7zM55.5 247.3c-.2 1.8-1.7 3.3-3.6 3.5-2 .3-3.5-.7-3.5-2.3 0-.2.1-.5.1-.7l.4-32c.3-1.8 1.7-3.3 3.5-3.5 2-.3 3.5.7 3.5 2.3zm.3-42h-.1a4 4 0 0 1-3.5 3.5c-2 .3-3.5-.7-3.5-2.3 0-.2 0-.5.1-.7l.4-32c.3-1.8 1.7-3.2 3.5-3.5 2-.3 3.5.7 3.5 2.3zM69.2 245c-.2 1.8-1.7 3.3-3.5 3.5-2 .3-3.5-.7-3.5-2.3 0-.2 0-.5.1-.7l.2-31.8c.2-2 1.7-3.3 3.5-3.6 2-.3 3.5.7 3.5 2.3zm.2-42c-.2 1.8-1.7 3.3-3.6 3.5-2 .3-3.5-.7-3.5-2.3 0-.2 0-.5.1-.7l.3-32c.3-1.8 1.7-3.2 3.5-3.5 2-.3 3.5.7 3.5 2.3zm14 39.6h-.1c-.2 1.8-1.7 3.3-3.5 3.5-2 .3-3.5-.7-3.5-2.3 0-.2 0-.5.1-.7l.4-32a4 4 0 0 1 3.5-3.5c2-.3 3.5.7 3.5 2.3zm.3-42c-.2 1.8-1.7 3.3-3.5 3.5-2 .3-3.5-.7-3.5-2.3a2.8 2.8 0 0 1 .1-.7l.4-32c.3-1.8 1.7-3.3 3.5-3.5 2-.3 3.5.7 3.5 2.3zM97.2 240H97a4 4 0 0 1-3.6 3.4c-2 .3-3.5-.7-3.5-2.3 0-.2 0-.5.1-.7l.4-32c.3-1.8 1.7-3.2 3.5-3.4 2-.3 3.5.7 3.5 2.3zm.3-42.2h-.1c-.2 1.8-1.7 3.3-3.5 3.5-2 .3-3.5-.7-3.5-2.3 0-.2 0-.5.1-.7l.4-32a4 4 0 0 1 3.5-3.6c2-.3 3.5.7 3.5 2.3zm12.5 40h-.1a4 4 0 0 1-3.5 3.5c-2 .3-3.5-.7-3.5-2.3 0-.2 0-.5.1-.7l.4-32c.3-1.8 1.7-3.2 3.5-3.5 2-.3 3.5.7 3.5 2.3zm.3-42c-.2 1.8-1.7 3.2-3.5 3.5-2 .3-3.5-.7-3.5-2.3a2.8 2.8 0 0 1 .1-.7l.4-32a4 4 0 0 1 3.4-3.5c2-.3 3.5.7 3.5 2.3zm13.5 39.7h-.1a4 4 0 0 1-3.5 3.4c-2 .3-3.5-.7-3.5-2.3 0-.2 0-.5.1-.7l.4-32c.3-1.8 1.7-3.2 3.5-3.5 2-.3 3.5.7 3.5 2.3zm.3-42h-.1c-.2 1.8-1.7 3.3-3.5 3.5-2 .3-3.5-.7-3.5-2.3 0-.2 0-.5.1-.7l.4-32a4 4 0 0 1 3.6-3.5c2-.3 3.5.7 3.5 2.3zm14 39.5c-.2 1.8-1.7 3.3-3.5 3.5-2 .3-3.5-.7-3.5-2.3 0-.2 0-.5.1-.7l.4-32c.3-1.8 1.7-3.3 3.6-3.5 2-.3 3.5.7 3.5 2.3zm.3-42h-.1a4 4 0 0 1-3.5 3.5c-2 .3-3.5-.7-3.5-2.3 0-.2 0-.5.1-.7l.4-32c.3-1.8 1.7-3.3 3.5-3.5 2-.3 3.5.7 3.5 2.3zm13.5 39.7h-.1c-.2 1.8-1.7 3.3-3.5 3.5-2 .3-3.5-.7-3.5-2.3a4.5 4.5 0 0 1 .1-.7l.4-32c.3-1.8 1.7-3.2 3.6-3.5 2-.3 3.5.7 3.5 2.3zm.3-42.2h-.1c-.2 1.8-1.6 3.3-3.4 3.5-2 .3-3.5-.7-3.5-2.3 0-.2 0-.5.1-.7l.4-32c.3-1.8 1.7-3.2 3.5-3.5 2-.3 3.5.7 3.5 2.3zm11.8 40h-.1c-.2 1.8-1.7 3.2-3.5 3.5-2 .3-3.5-.7-3.5-2.3 0-.2 0-.5 0-.7l.4-32c.3-1.8 1.7-3.2 3.5-3.5 2-.3 3.5.7 3.5 2.3zm.3-42.2h-.1c-.2 1.8-1.7 3.3-3.5 3.5-2 .3-3.5-.7-3.5-2.3a4.5 4.5 0 0 1 .1-.7l.4-32c.3-1.8 1.7-3.3 3.6-3.5 2-.3 3.5.7 3.5 2.3zm13.4 39.7h-.1a4 4 0 0 1-3.6 3.5c-2 .3-3.5-.7-3.5-2.3 0-.2 0-.5.1-.7l.4-32c.3-1.8 1.7-3.3 3.5-3.5 2-.3 3.5.7 3.5 2.3zm.3-42h-.1c-.2 1.8-1.7 3.2-3.5 3.5-2 .3-3.5-.7-3.5-2.3 0-.2 0-.5 0-.7l.5-32a4 4 0 0 1 3.5-3.5c2-.3 3.5.7 3.5 2.3zm14 39.6c-.3 1.8-1.7 3.3-3.6 3.5-2 .3-3.5-.7-3.5-2.3 0-.2 0-.5.1-.7l.4-32c.3-1.8 1.7-3.2 3.5-3.5 2-.3 3.5.7 3.5 2.3zm.3-42h-.1c-.2 1.8-1.7 3.3-3.5 3.5-2 .3-3.5-.7-3.5-2.3 0-.2 0-.5.1-.7l.4-32c.3-1.8 1.7-3.2 3.5-3.5 2-.3 3.5.7 3.5 2.3zm13.4 39.7c-.2 1.8-1.7 3.3-3.5 3.5-2 .3-3.5-.7-3.5-2.3 0-.2.1-.5.1-.7l.4-32c.3-1.8 1.7-3.3 3.6-3.5 2-.3 3.5.7 3.5 2.3zm.3-42h-.1a4 4 0 0 1-3.5 3.5c-2 .3-3.5-.7-3.5-2.3 0-.2 0-.5.1-.7l.4-32c.3-1.8 1.7-3.3 3.6-3.5 2-.3 3.5.7 3.5 2.3zm12.5 40c-.3 1.8-1.7 3.3-3.6 3.5-2 .3-3.5-.7-3.5-2.3 0-.2 0-.5.1-.7l.4-32c.3-1.8 1.7-3.2 3.5-3.5 2-.3 3.5.7 3.5 2.3zm.3-42.2h-.1a4 4 0 0 1-3.5 3.5c-2 .3-3.5-.7-3.5-2.3 0-.2 0-.5.1-.7l.4-32c.3-1.8 1.7-3.2 3.5-3.5 2-.3 3.5.7 3.5 2.3zm13.4 39.7c-.2 1.8-1.7 3.2-3.5 3.5-2 .3-3.5-.7-3.5-2.3 0-.2.1-.5.1-.7l.4-32c.3-1.8 1.7-3.3 3.6-3.5 2-.3 3.5.7 3.5 2.3zm.3-42c-.3 1.8-1.7 3.2-3.5 3.4-2 .3-3.5-.7-3.5-2.3 0-.2 0-.5.1-.7l.4-32c.3-1.8 1.7-3.2 3.5-3.5 2-.3 3.5.7 3.5 2.3z" class="F"/><g fill="#fff"><path d="M103.7 129.3l7.5-1.3.5 3-4 .7.4 2 3.6-.6.5 2.8-3.6.6.4 2.4 4-.7.5 3-7.5 1.3zm22.8-4l-3.3 8.8a4 4 0 0 1-2.8 2.6c-1 .2-2 .1-2.7-.5s-1.3-1.4-1.5-2.4c-.3-2 1-3.7 2.7-4a5.6 5.6 0 0 1 4.2 1.3l1.3-3a7.1 7.1 0 0 0-6-1.6c-1.8.3-3.5 1.3-4.6 2.8s-1.6 3.4-1.3 5.2c.6 3.6 3.8 6 7.4 5.8a7.5 7.5 0 0 0 5.8-3.3h.1l3-.5.4 2 3.2-.6-2.2-13zm1.8 8.3l-1.7.3 1.2-3.2zm7.3 3.5l-1.7-10-2.6.5-.6-3 8.6-1.5.6 3-2.6.5 1.8 10zm12.6-7.4l-3.5.6 1 5-3.4.6-2.3-13 3.4-.6 1 5 3.5-.6-1-5 3.4-.6 2.3 13-3.4.6zm5.3 4.2l-2.3-13 3.4-.6 1.8 10.2 4-.7.5 3z"/><path d="M159 121.3a6.7 6.7 0 0 1 4.5-2.7 6.9 6.9 0 0 1 5.1 1.1c1.5 1 2.6 2.6 3 4.4.3 1.8-.1 3.7-1 5.2s-2.7 2.5-4.5 3a6.6 6.6 0 0 1-5.3-1.2c-1.5-1-2.5-2.7-2.7-4.5-.3-1.8.1-3.6 1.2-5m6.3 7.6a3.6 3.6 0 1 0-4.1-3c.3 2 2.2 3.3 4.2 3"/><path d="M172.2 130.7l-2.3-13 3-.5 6.3 6.3-1.3-7.2 3.4-.6 2.3 13-3 .5-6.4-6.3 1.3 7.3zm-78 13.8l-2.3-13 4.7-.8a7 7 0 0 1 5.4.6 6.6 6.6 0 0 1 2.9 4.7c.4 1.8 0 3.7-1 5.2a6.1 6.1 0 0 1-4.4 2.4zm7.4-8c-.1-1-.6-2-1.5-2.6s-2-.7-3-.4l-1.3.2L97 141l1.3-.2a3.3 3.3 0 0 0 3.1-4.3"/></g><path d="M26 178.8c-6.5 0-10.4-1.5-11.8-4.6a11.9 11.9 0 0 1 .4-10.2 11.9 11.9 0 0 1 5.8-4.9l.7-.3.6 1.3-.7.3c-2 .8-4 2.3-5 4.2-1.4 2.8-1.5 6-.3 9 3.3 7.3 25.6 2.7 43.8-2.3a375.2 375.2 0 0 0 45.4-16.3l13.3-5.4a549.3 549.3 0 0 1 56.9-19l.7-.2.4 1.4-.7.2a551.2 551.2 0 0 0-56.7 19l-13.3 5.4a370 370 0 0 1-45.6 16.2q-22.2 6.3-33.6 6.3zM184.4 137c-1.5 0-3-.5-4-1.4a6.7 6.7 0 0 1-2.3-5.2c.1-4.3 3.2-8 7.4-9a6.5 6.5 0 0 1 5.4 1.3 6.6 6.6 0 0 1 2.3 5.2c-.1 4.3-3.2 8-7.4 9a7.1 7.1 0 0 1-1.3.1zm2.3-14.2a6 6 0 0 0-1 0 7.8 7.8 0 0 0-6.2 7.5 5.2 5.2 0 0 0 1.8 4.1 5 5 0 0 0 4.2 1 7.8 7.8 0 0 0 6.2-7.5 5.2 5.2 0 0 0-1.7-4.1 4.8 4.8 0 0 0-3.2-1z" fill="#1d262d"/><path d="M275 222.8a266.9 266.9 0 0 1 15.2-3.3l46-7.3-30.5 6c-5 1-10 2-15.2 2.8l-15.4 2zm-2-12a171.1 171.1 0 0 1 12.7-2.9l38.8-6-25.7 5c-4.2.8-8.5 1.8-13 2.4l-13 1.6zm-2.2-12.6l37-6.4-27.7 5.5-9.4 1z" opacity=".4" class="F"/><path d="M57.6 260c-.8.1-1.6.4-2.3 1 3-.5 5.7 1.2 6.7 4s0 5.8-2.5 7.4a6.2 6.2 0 0 0 4.9-7.1 6.2 6.2 0 0 0-7-5.1z" class="D"/><path d="M59.7 272.8l-2.6.4 2-1.4a5.6 5.6 0 0 0 2.6-5.7c-.5-3-3.3-5-6.3-4.6l-2.6.4 2-1.4c.8-.5 1.6-.8 2.6-1a6.7 6.7 0 0 1 7.3 5.6 6.7 6.7 0 0 1-5.2 7.6zM58 260.6c2.5.7 4.4 2.8 5 5.4.3 1.7-.1 3.5-1 5 2-1.5 3-4.2 2-6.6s-3.3-4-6-3.6z" class="E"/><ellipse cx="6.8" cy="6.4" rx="6.8" ry="6.4" transform="matrix(.99 -.17 .17 .99 48.76 261.6)" class="D"/><g class="E"><path d="M57.7 273.6c-3.8.4-7.2-2.2-7.7-6a7 7 0 0 1 5.9-7.8c3.8-.6 7.3 2 8 5.7a7.2 7.2 0 0 1-6.1 8.1zm-2-12.7a5.8 5.8 0 0 0-4.3 6.9 5.8 5.8 0 0 0 6.8 4.5 5.8 5.8 0 0 0 4.6-6.7 6 6 0 0 0-7.2-4.6z"/><ellipse cx="3.9" cy="3.6" rx="3.9" ry="3.6" transform="matrix(.99 -.17 .17 .99 52.09 263.8)"/><path d="M57.2 270.8a4.1 4.1 0 1 1 3.6-4.8c.3 2.3-1.3 4.4-3.6 4.8zm-1.2-7.2c-1.8.3-3 2-2.8 3.7.5 1.7 2 2.8 4 2.4s3-1.8 2.8-3.6c-.4-1.8-2-3-4-2.6z"/></g><ellipse cx="1.4" cy="1.5" rx="1.4" ry="1.5" transform="matrix(.58 -.82 .82 .58 54.5 267.01)" class="D"/><path d="M57 268.3c-.4 0-.8-.1-1.2-.3-.5-.3-.8-.8-.8-1.4s.4-1 1-1.3 1.2-.1 1.6.3c.3.3.6.6.7 1a1.5 1.5 0 0 1-.2 1.2c-.2.3-.6.6-1 .6zm-.7-2.8c-.3.1-.6.2-.8.5-.2.3-.3.6-.2 1s.3.6.6.8c.3.2.6.3 1 .3.3 0 .6-.2 1-.5.2-.3.3-.6.2-1-.1-.4-.3-.7-.6-1-.3-.2-.7-.3-1-.2z" class="E"/><path d="M216 232a7.3 7.3 0 0 0-2.6 1 7.1 7.1 0 0 1 4.9 13 7.1 7.1 0 1 0-2.4-14z" class="D"/><path d="M218.7 246.6h-.2l-3 .5 2.6-1.6c2.6-1.6 3.7-5 2.6-7.7s-4-4.6-7-4l-3 .4 2.5-1.6a8 8 0 0 1 2.8-1.1 7.7 7.7 0 0 1 8.6 10.3 7.7 7.7 0 0 1-6 4.9zm-2-14a7.7 7.7 0 0 1 4.4 11.8 6.5 6.5 0 0 0-4.4-11.8z" class="E"/><ellipse cx="7.8" cy="7.3" rx="7.8" ry="7.3" transform="matrix(.99 -.17 .17 .99 206.01 233.73)" class="D"/><g class="E"><path d="M216.2 247.5a8 8 0 0 1-8.8-6.9 8 8 0 0 1 6.7-8.9 8 8 0 0 1 9.1 6.6 8.2 8.2 0 0 1-7 9.3zm-2.4-14.4a6.7 6.7 0 0 0-5 7.9 6.7 6.7 0 0 0 7.8 5.1 6.7 6.7 0 0 0 5.3-7.7 6.9 6.9 0 0 0-8.1-5.4z"/><ellipse cx="4.5" cy="4.2" rx="4.5" ry="4.2" transform="matrix(.99 -.17 .17 .99 209.83 236.28)"/><path d="M215.7 244.3c-2.6.2-4.8-1.6-5-4.2s1.5-5 4-5.2 5 1.4 5.3 4a4.9 4.9 0 0 1-4.2 5.5zm-1.4-8.3c-2 .3-3.5 2.2-3.3 4.2.1 1.6 1.3 3 2.8 3.4s3.2-.1 4.2-1.4 1-3 .3-4.4-2.4-2-4-1.8z"/></g><ellipse cx="1.6" cy="1.7" rx="1.6" ry="1.7" transform="matrix(.58 -.82 .82 .58 212.59 239.98)" class="D"/><path d="M215.3 241.4c-.5.1-1 0-1.4-.3a1.8 1.8 0 0 1-.5-2.5c.3-.4.7-.6 1.2-.7.5-.1 1 .1 1.3.3.4.3.7.7.8 1.2.1.5 0 1-.3 1.3-.3.4-.7.6-1 .7zm-.7-3.2c-.4.1-.7.3-1 .6-.3.5-.4 1-.2 1.6s.7 1 1.3 1 1-.2 1.4-.7c.2-.3.3-.7.2-1-.1-.4-.3-.8-.7-1-.3-.2-.7-.3-1-.3z" class="E"/><ellipse cx="122.3" cy="3" rx="122.3" ry="3" transform="matrix(.99 -.17 .17 .99 .01 283.61)" opacity=".1" class="D"/></svg>