<svg xmlns="http://www.w3.org/2000/svg" width="13.727" height="19.218" viewBox="0 0 13.727 19.218"><defs><style>.a{fill:#424553;opacity:0.5;}</style></defs><path class="a" d="M.687,19.218A.686.686,0,0,1,0,18.532V6.178a.686.686,0,1,1,1.373,0V17.845H12.354V6.178a.686.686,0,1,1,1.372,0V18.532a.686.686,0,0,1-.686.686Zm2.745-4.8V7.55a.686.686,0,1,1,1.373,0v6.863a.686.686,0,1,1-1.373,0Zm2.746-1.373V7.55a.686.686,0,1,1,1.372,0v5.491a.686.686,0,0,1-1.372,0Zm2.745-1.373V7.55a.686.686,0,1,1,1.373,0v4.118a.686.686,0,0,1-1.373,0Zm-.687-7.55H.687a.687.687,0,1,1,0-1.373H4.8V.687A.687.687,0,0,1,5.491,0H8.236a.686.686,0,0,1,.687.687V2.745h4.118a.687.687,0,0,1,0,1.373ZM6.178,2.745H7.55V1.373H6.178Z"/></svg>